<?xml version="1.0" standalone="no"?>
<!DOCTYPE svg PUBLIC "-//W3C//DTD SVG 20010904//EN"
 "http://www.w3.org/TR/2001/REC-SVG-20010904/DTD/svg10.dtd">
<svg version="1.0" xmlns="http://www.w3.org/2000/svg"
 width="16.000000pt" height="16.000000pt" viewBox="0 0 16.000000 16.000000"
 preserveAspectRatio="xMidYMid meet">
<metadata>
Created by potrace 1.11, written by Peter Selinger 2001-2013
</metadata>
<g transform="translate(0.000000,16.000000) scale(0.003571,-0.003571)"
fill="#000000" stroke="none">
<path d="M1920 4469 c0 -7 -12 -10 -30 -7 -16 3 -30 1 -30 -3 0 -5 -11 -4 -24
1 -19 7 -26 5 -30 -7 -4 -8 -13 -13 -21 -9 -8 3 -15 2 -15 -3 0 -4 -12 -6 -26
-3 -17 3 -25 1 -21 -6 9 -14 -18 -23 -31 -10 -6 6 -12 6 -16 -1 -4 -5 -13 -8
-21 -4 -8 3 -15 0 -15 -7 0 -8 -12 -11 -35 -8 -22 2 -36 -1 -39 -9 -3 -7 -17
-13 -30 -13 -14 0 -29 -7 -34 -16 -6 -11 -12 -13 -16 -6 -5 8 -20 4 -49 -11
-23 -12 -47 -22 -53 -23 -19 -3 -148 -68 -156 -79 -4 -5 -8 -7 -8 -2 0 9 -98
-42 -124 -65 -10 -10 -23 -15 -27 -12 -4 2 -12 -3 -17 -12 -6 -10 -16 -15 -26
-11 -9 4 -16 2 -16 -4 0 -14 -27 -40 -38 -37 -5 2 -22 -10 -38 -27 -16 -16
-36 -31 -44 -33 -8 -2 -26 -16 -41 -32 -15 -15 -30 -26 -32 -23 -3 3 -28 -18
-56 -46 -28 -28 -55 -51 -61 -51 -5 0 -10 -5 -10 -10 0 -6 -44 -54 -97 -106
-53 -53 -98 -103 -99 -111 -1 -8 -14 -24 -28 -36 -13 -12 -26 -28 -28 -36 -2
-7 -18 -28 -35 -46 -18 -17 -30 -35 -27 -38 3 -3 -6 -18 -20 -32 -15 -14 -24
-31 -21 -36 4 -5 3 -9 -2 -9 -4 0 -14 -13 -21 -30 -8 -16 -20 -30 -27 -30 -8
0 -12 -8 -10 -19 2 -11 -3 -22 -11 -25 -9 -3 -12 -10 -9 -16 3 -6 -1 -17 -9
-26 -9 -9 -14 -19 -11 -24 3 -4 -2 -10 -10 -14 -8 -3 -12 -12 -9 -19 3 -8 -2
-17 -10 -20 -9 -4 -13 -13 -10 -20 3 -8 -2 -17 -10 -20 -9 -4 -13 -13 -10 -22
4 -9 1 -15 -9 -15 -10 0 -13 -9 -11 -30 2 -16 -1 -30 -6 -30 -6 0 -10 -7 -10
-15 0 -9 -7 -18 -15 -21 -10 -4 -12 -11 -6 -23 6 -11 3 -23 -9 -39 -10 -12
-16 -31 -13 -42 3 -12 0 -20 -7 -20 -7 0 -10 -8 -7 -20 3 -11 1 -23 -4 -26 -5
-3 -7 -10 -4 -15 4 -5 1 -9 -5 -9 -7 0 -10 -6 -7 -13 3 -8 1 -20 -3 -28 -5 -7
-5 -18 1 -25 7 -9 5 -14 -8 -18 -19 -6 -24 -40 -9 -64 4 -7 2 -12 -7 -12 -9 0
-14 -11 -15 -31 0 -17 -3 -33 -6 -36 -2 -3 -1 -16 4 -29 7 -19 6 -24 -5 -24
-13 0 -15 -44 -15 -314 0 -184 4 -317 9 -321 5 -3 9 -18 9 -34 -1 -15 2 -33 6
-40 4 -6 3 -11 -2 -11 -5 0 -9 -7 -9 -15 0 -8 6 -15 12 -15 6 0 12 -6 12 -12
0 -7 4 -22 9 -32 5 -14 4 -17 -5 -12 -8 5 -6 -5 5 -25 10 -19 17 -47 15 -63
-2 -19 1 -26 9 -21 8 5 10 -2 7 -24 -4 -20 0 -37 10 -47 9 -8 13 -25 11 -39
-3 -15 0 -26 10 -30 8 -3 12 -12 8 -20 -3 -8 2 -22 11 -30 8 -9 13 -19 10 -22
-4 -3 3 -17 14 -31 13 -17 16 -28 9 -32 -7 -5 -6 -11 5 -20 8 -7 15 -19 15
-26 0 -8 5 -14 11 -14 5 0 8 -4 4 -9 -3 -5 2 -16 11 -25 8 -9 13 -20 9 -25 -3
-5 -1 -12 4 -16 15 -9 41 -66 35 -76 -3 -5 2 -9 10 -9 9 0 16 -8 16 -18 0 -10
9 -25 20 -35 12 -10 18 -22 15 -27 -4 -6 1 -13 9 -16 9 -3 14 -10 11 -14 -3
-5 5 -19 17 -32 13 -13 24 -30 26 -38 2 -8 16 -28 32 -43 17 -16 26 -34 23
-43 -3 -8 -2 -14 3 -12 12 3 69 -51 61 -58 -3 -4 12 -24 33 -46 22 -21 40 -43
40 -48 0 -6 5 -10 11 -10 15 0 69 -56 69 -71 0 -7 3 -10 6 -6 4 3 36 -25 73
-63 37 -38 73 -70 81 -72 8 -2 27 -15 41 -30 15 -16 31 -28 37 -28 5 0 24 -15
43 -34 18 -19 37 -32 41 -30 4 3 19 -6 31 -20 13 -14 27 -23 31 -19 4 4 11 1
16 -7 5 -7 16 -15 26 -16 10 -2 21 -10 26 -19 5 -8 13 -13 19 -10 5 4 9 1 9
-5 0 -6 5 -8 10 -5 5 3 10 2 10 -4 0 -6 11 -13 25 -17 14 -3 25 -11 25 -17 0
-6 3 -8 6 -5 3 4 30 -7 61 -23 30 -16 60 -26 66 -22 6 3 7 1 3 -5 -4 -7 -1
-12 8 -12 9 0 16 -5 16 -11 0 -5 5 -7 11 -4 12 8 79 -22 79 -35 0 -5 9 -6 22
-1 16 6 26 4 33 -5 5 -8 22 -15 38 -16 15 -1 27 -7 27 -13 0 -7 14 -9 34 -7
18 2 37 -1 40 -7 4 -6 20 -11 36 -11 16 0 32 -5 35 -10 4 -6 21 -9 40 -7 23 3
37 -1 45 -14 10 -13 19 -15 36 -9 14 6 26 5 29 0 4 -7 13 -7 25 0 13 7 19 6
24 -5 8 -22 646 -23 646 0 0 11 5 12 24 5 13 -5 26 -6 29 -4 3 3 19 6 36 6 20
1 31 6 31 15 0 9 5 11 13 6 18 -11 61 -3 70 14 7 10 12 11 22 3 9 -8 15 -8 20
0 3 6 11 7 17 4 6 -4 14 0 19 7 5 8 21 13 39 11 18 -2 30 1 30 8 0 7 8 10 20
7 11 -3 30 3 43 13 15 12 28 15 37 10 9 -6 18 -3 26 8 7 9 17 18 23 18 6 1 12
2 14 3 1 2 13 5 27 7 13 2 27 9 31 16 4 6 12 7 18 4 6 -4 14 0 17 9 4 9 13 14
21 11 7 -3 16 1 19 9 4 8 10 13 14 10 5 -3 14 0 22 7 7 7 20 14 28 16 8 2 18
9 22 15 4 7 8 8 8 3 0 -4 11 -1 25 8 14 9 25 13 25 10 0 -4 10 4 23 17 13 13
30 25 38 27 7 2 16 8 17 13 2 5 8 7 12 4 5 -3 19 5 32 17 13 13 30 24 37 26 8
2 26 15 40 30 14 15 33 28 41 30 8 2 25 15 37 28 12 14 28 27 36 28 8 1 72 59
141 129 69 70 131 127 138 127 6 0 9 3 6 6 -3 3 5 17 18 31 13 14 22 28 20 30
-2 3 9 17 24 32 16 15 30 33 32 41 2 8 17 28 35 43 17 16 30 34 27 40 -2 7 7
20 20 30 14 11 22 25 20 32 -3 7 2 15 10 18 9 4 13 15 11 26 -2 11 1 20 6 18
5 -1 17 12 27 28 9 17 22 33 27 37 6 4 7 8 3 8 -4 0 6 25 23 56 16 31 29 63
29 71 0 8 5 11 10 8 6 -3 10 2 10 12 0 11 6 28 14 38 8 11 12 25 9 32 -3 7 0
13 7 13 6 0 10 10 8 23 -2 12 2 21 8 20 7 -1 14 7 17 17 3 11 0 20 -5 20 -6 0
-4 8 5 18 10 10 17 28 17 41 0 12 6 24 13 27 8 3 11 17 9 39 -3 23 0 35 8 35
7 0 10 6 7 14 -3 7 -1 18 5 24 6 6 6 12 -1 16 -5 4 -8 13 -5 21 4 8 11 12 16
8 7 -4 9 4 6 21 -3 14 -1 26 3 26 5 0 6 7 3 15 -4 8 1 17 9 21 12 4 14 11 7
30 -5 13 -6 24 -1 24 4 0 6 13 3 30 -3 18 0 30 7 30 8 0 11 90 11 315 0 274
-2 316 -15 321 -11 4 -12 10 -6 18 6 7 6 17 1 26 -5 8 -5 17 0 20 7 4 -2 37
-25 94 -6 14 -5 17 4 12 8 -5 6 5 -5 25 -10 19 -17 47 -15 63 2 19 -1 26 -9
21 -8 -5 -10 2 -7 24 4 20 0 37 -10 47 -9 8 -13 25 -11 39 3 15 0 26 -10 30
-8 3 -12 12 -8 20 3 8 -2 22 -11 30 -8 9 -13 19 -10 22 4 3 -3 17 -14 31 -13
17 -16 28 -9 32 7 5 6 11 -5 20 -8 7 -15 19 -15 26 0 8 -5 14 -11 14 -5 0 -8
4 -4 9 3 5 -2 16 -11 25 -8 9 -13 20 -9 25 3 5 1 12 -4 16 -15 9 -41 66 -35
76 3 5 -2 9 -10 9 -9 0 -16 8 -16 18 0 10 -9 25 -20 35 -12 10 -18 22 -15 27
4 6 -1 13 -9 16 -9 3 -14 10 -11 14 3 5 -5 19 -17 32 -13 13 -24 30 -26 38 -2
8 -16 28 -32 43 -17 16 -26 34 -23 43 3 8 2 14 -3 12 -12 -3 -69 51 -61 58 3
4 -12 24 -33 46 -22 21 -40 44 -40 50 0 6 -3 9 -6 5 -7 -7 -154 140 -154 155
0 6 -3 8 -6 5 -4 -3 -19 7 -34 23 -15 16 -33 30 -41 32 -7 2 -25 15 -38 31
-14 15 -31 27 -37 27 -6 0 -25 14 -42 30 -18 17 -36 30 -42 30 -6 0 -20 11
-31 24 -12 14 -27 22 -34 20 -7 -3 -15 2 -18 10 -4 9 -13 13 -22 10 -10 -4
-15 0 -15 11 0 9 -4 14 -9 11 -5 -3 -11 1 -15 9 -3 8 -12 12 -21 9 -9 -4 -15
0 -15 10 0 9 -6 13 -14 10 -8 -3 -21 -1 -28 5 -26 23 -131 70 -141 64 -6 -3
-7 -1 -3 5 4 7 1 12 -8 12 -9 0 -16 5 -16 11 0 5 -5 7 -11 4 -12 -8 -79 22
-79 35 0 5 -9 6 -22 1 -16 -6 -26 -4 -33 5 -5 8 -22 15 -37 16 -16 1 -28 7
-28 13 0 7 -14 9 -34 7 -18 -2 -37 1 -40 7 -4 6 -20 11 -36 11 -16 0 -32 5
-35 10 -4 6 -21 9 -40 7 -23 -3 -37 1 -45 14 -10 13 -19 15 -36 9 -14 -6 -26
-5 -29 0 -4 7 -13 7 -25 0 -13 -7 -19 -6 -24 5 -5 13 -52 15 -326 15 -228 0
-320 -3 -320 -11z"/>
</g>
</svg>
